<svg width="20" height="20" viewBox="0 0 20 20" fill="none" xmlns="http://www.w3.org/2000/svg">
<path fill-rule="evenodd" clip-rule="evenodd" d="M3.25 6.5C3.25 6.08579 3.58579 5.75 4 5.75H16C16.4142 5.75 16.75 6.08579 16.75 6.5V15.5C16.75 15.6989 16.671 15.8897 16.5303 16.0303L14.5303 18.0303C14.3897 18.171 14.1989 18.25 14 18.25H6C5.80109 18.25 5.61032 18.171 5.46967 18.0303L3.46967 16.0303C3.32902 15.8897 3.25 15.6989 3.25 15.5V6.5ZM4.75 7.25V15.1893L6.31066 16.75H13.6893L15.25 15.1893V7.25H4.75Z" fill="#233B4D"/>
<path fill-rule="evenodd" clip-rule="evenodd" d="M9 3.25C8.31421 3.25 7.75 3.81421 7.75 4.5V6.5H6.25V4.5C6.25 2.98579 7.48579 1.75 9 1.75H11C12.5142 1.75 13.75 2.98579 13.75 4.5V6.5H12.25V4.5C12.25 3.81421 11.6858 3.25 11 3.25H9Z" fill="#233B4D"/>
</svg>
